<svg width="14" height="14" viewBox="0 0 14 14" fill="none" xmlns="http://www.w3.org/2000/svg">
    <path d="M5.86892 2.83398H3.84571C2.78841 2.83398 2.25975 2.83398 1.86493 3.05919C1.59825 3.2113 1.37731 3.43223 1.2252 3.69891C1 4.09374 1 4.62239 1 5.6797V9.6219C1 10.6792 1 11.2079 1.2252 11.6027C1.37731 11.8694 1.59825 12.0903 1.86493 12.2424C2.25975 12.4676 2.78841 12.4676 3.84571 12.4676H7.89213C8.94944 12.4676 9.4781 12.4676 9.87292 12.2424C10.1396 12.0903 10.3605 11.8694 10.5126 11.6027C10.7378 11.2079 10.7378 10.6792 10.7378 9.6219V7.6508" stroke="#C4C4C4" stroke-width="1.28571" stroke-linecap="round"/>
    <path d="M9.63125 1.25709L12.1846 1.26887M12.1846 1.26887L12.1965 3.79489M12.1846 1.26887L5.755 7.65034" stroke="#C4C4C4" stroke-width="1.28571" stroke-linecap="round"/>
</svg>
