<svg width="363" height="204" viewBox="0 0 363 204" fill="none" xmlns="http://www.w3.org/2000/svg">
<g clip-path="url(#clip0)">
<rect width="363" height="204" fill="#3E3E59"/>
<circle cx="218" cy="109" r="184.5" stroke="#9F87D3"/>
<circle cx="218" cy="109" r="139.5" stroke="white"/>
<circle cx="218" cy="109" r="99.5" stroke="#9F87D3"/>
<circle cx="218" cy="109" r="59.5" stroke="white"/>
<circle cx="218" cy="109" r="19.5" stroke="#9F87D3"/>
<rect x="145.5" y="103.5" width="72" height="10" fill="#2B2B37" stroke="#3E3E59"/>
<mask id="path-7-inside-1" fill="white">
<path fill-rule="evenodd" clip-rule="evenodd" d="M132 71H29L52 109L29 147H132L152 109L132 71Z"/>
</mask>
<path fill-rule="evenodd" clip-rule="evenodd" d="M132 71H29L52 109L29 147H132L152 109L132 71Z" fill="#2B2B37"/>
<path d="M29 71V70H27.2258L28.1445 71.5178L29 71ZM132 71L132.885 70.5343L132.604 70H132V71ZM52 109L52.8555 109.518L53.1689 109L52.8555 108.482L52 109ZM29 147L28.1445 146.482L27.2258 148H29V147ZM132 147V148H132.604L132.885 147.466L132 147ZM152 109L152.885 109.466L153.13 109L152.885 108.534L152 109ZM29 72H132V70H29V72ZM52.8555 108.482L29.8555 70.4822L28.1445 71.5178L51.1445 109.518L52.8555 108.482ZM29.8555 147.518L52.8555 109.518L51.1445 108.482L28.1445 146.482L29.8555 147.518ZM132 146H29V148H132V146ZM151.115 108.534L131.115 146.534L132.885 147.466L152.885 109.466L151.115 108.534ZM131.115 71.4657L151.115 109.466L152.885 108.534L132.885 70.5343L131.115 71.4657Z" fill="#3E3E59" mask="url(#path-7-inside-1)"/>
</g>
<defs>
<clipPath id="clip0">
<rect width="363" height="204" fill="white"/>
</clipPath>
</defs>
</svg>
