<svg width="363" height="204" viewBox="0 0 363 204" fill="none" xmlns="http://www.w3.org/2000/svg">
<g clip-path="url(#clip0)">
<rect width="363" height="204" fill="#3E3E59"/>
<circle cx="417" cy="109" r="184.5" stroke="#9F87D3"/>
<rect x="202.285" y="105.389" width="112.487" height="10.023" transform="rotate(28 202.285 105.389)" fill="#2B2B37" stroke="#3E3E59"/>
<mask id="path-3-inside-1" fill="white">
<path fill-rule="evenodd" clip-rule="evenodd" d="M205.623 70.3556L114.68 22L117.148 66.3499L78.9998 89.104L169.943 137.46L205.442 113.297L205.623 70.3556Z"/>
</mask>
<path fill-rule="evenodd" clip-rule="evenodd" d="M205.623 70.3556L114.68 22L117.148 66.3499L78.9998 89.104L169.943 137.46L205.442 113.297L205.623 70.3556Z" fill="#2B2B37"/>
<path d="M114.68 22L115.149 21.1171L113.583 20.2841L113.681 22.0556L114.68 22ZM205.623 70.3556L206.623 70.3598L206.626 69.7561L206.093 69.4726L205.623 70.3556ZM117.148 66.3499L117.66 67.2087L118.18 66.8986L118.146 66.2943L117.148 66.3499ZM78.9998 89.104L78.4876 88.2452L76.9639 89.154L78.5304 89.987L78.9998 89.104ZM169.943 137.46L169.474 138.343L170.007 138.626L170.506 138.286L169.943 137.46ZM205.442 113.297L206.005 114.124L206.44 113.828L206.442 113.301L205.442 113.297ZM114.21 22.8829L205.154 71.2385L206.093 69.4726L115.149 21.1171L114.21 22.8829ZM118.146 66.2943L115.678 21.9444L113.681 22.0556L116.149 66.4054L118.146 66.2943ZM79.5121 89.9628L117.66 67.2087L116.635 65.491L78.4876 88.2452L79.5121 89.9628ZM170.413 136.577L79.4693 88.2211L78.5304 89.987L169.474 138.343L170.413 136.577ZM204.88 112.47L169.381 136.633L170.506 138.286L206.005 114.124L204.88 112.47ZM204.623 70.3514L204.442 113.293L206.442 113.301L206.623 70.3598L204.623 70.3514Z" fill="#3E3E59" mask="url(#path-3-inside-1)"/>
<circle cx="417" cy="109" r="139.5" fill="#3E3E59" stroke="white"/>
<circle cx="417" cy="109" r="99.5" fill="#3E3E59" stroke="#9F87D3"/>
<circle cx="417" cy="109" r="59.5" fill="#3E3E59" stroke="white"/>
</g>
<defs>
<clipPath id="clip0">
<rect width="363" height="204" fill="white"/>
</clipPath>
</defs>
</svg>
