<svg width="363" height="204" viewBox="0 0 363 204" fill="none" xmlns="http://www.w3.org/2000/svg">
<g clip-path="url(#clip0)">
<rect width="363" height="204" fill="#3E3E59"/>
<circle cx="37" cy="109" r="184.5" stroke="#9F87D3"/>
<circle cx="37" cy="109" r="139.5" fill="#3E3E59" stroke="white"/>
<rect x="223.184" y="48.1011" width="112.487" height="10.023" transform="rotate(152 223.184 48.1011)" fill="#2B2B37" stroke="#3E3E59"/>
<mask id="path-4-inside-1" fill="white">
<path fill-rule="evenodd" clip-rule="evenodd" d="M250.361 70.4591L341.305 22.1035L303.157 -0.650653L305.625 -45.0005L214.681 3.35506L214.862 46.2965L250.361 70.4591Z"/>
</mask>
<path fill-rule="evenodd" clip-rule="evenodd" d="M250.361 70.4591L341.305 22.1035L303.157 -0.650653L305.625 -45.0005L214.681 3.35506L214.862 46.2965L250.361 70.4591Z" fill="#2B2B37"/>
<path d="M341.305 22.1035L341.774 22.9865L343.341 22.1535L341.817 21.2447L341.305 22.1035ZM250.361 70.4591L249.798 71.2858L250.297 71.6255L250.831 71.342L250.361 70.4591ZM303.157 -0.650653L302.159 -0.706214L302.125 -0.101885L302.645 0.208173L303.157 -0.650653ZM305.625 -45.0005L306.623 -44.945L306.722 -46.7164L305.155 -45.8835L305.625 -45.0005ZM214.681 3.35506L214.212 2.47211L213.679 2.75555L213.681 3.35928L214.681 3.35506ZM214.862 46.2965L213.862 46.3007L213.864 46.827L214.3 47.1232L214.862 46.2965ZM340.835 21.2206L249.892 69.5761L250.831 71.342L341.774 22.9865L340.835 21.2206ZM302.645 0.208173L340.792 22.9623L341.817 21.2447L303.669 -1.50948L302.645 0.208173ZM304.626 -45.0561L302.159 -0.706214L304.155 -0.595093L306.623 -44.945L304.626 -45.0561ZM215.151 4.23801L306.094 -44.1176L305.155 -45.8835L214.212 2.47211L215.151 4.23801ZM215.862 46.2923L215.681 3.35084L213.681 3.35928L213.862 46.3007L215.862 46.2923ZM250.924 69.6324L215.425 45.4698L214.3 47.1232L249.798 71.2858L250.924 69.6324Z" fill="#3E3E59" mask="url(#path-4-inside-1)"/>
<circle cx="37" cy="109" r="99.5" fill="#3E3E59" stroke="#9F87D3"/>
<circle cx="37" cy="109" r="59.5" fill="#3E3E59" stroke="white"/>
<circle cx="37" cy="109" r="19.5" fill="#3E3E59" stroke="#9F87D3"/>
</g>
<defs>
<clipPath id="clip0">
<rect width="363" height="204" fill="white"/>
</clipPath>
</defs>
</svg>
