<svg width="203" height="31" viewBox="0 0 203 31" fill="none" xmlns="http://www.w3.org/2000/svg">
<path d="M17.8125 24H15.8906L2.8125 4.53125V24H0.875V1.25H2.8125L15.9062 20.7344V1.25H17.8125V24ZM40.4062 13.8594C40.4062 15.9531 40.0417 17.7917 39.3125 19.375C38.5938 20.9583 37.5625 22.1771 36.2188 23.0312C34.875 23.8854 33.3229 24.3125 31.5625 24.3125C28.9062 24.3125 26.7604 23.3646 25.125 21.4688C23.4896 19.5625 22.6719 16.9948 22.6719 13.7656V11.4219C22.6719 9.34896 23.0365 7.51562 23.7656 5.92188C24.5052 4.31771 25.5469 3.08854 26.8906 2.23438C28.2344 1.36979 29.7812 0.9375 31.5312 0.9375C33.2812 0.9375 34.8229 1.35938 36.1562 2.20312C37.5 3.04688 38.5365 4.23958 39.2656 5.78125C39.9948 7.32292 40.375 9.10938 40.4062 11.1406V13.8594ZM38.4844 11.3906C38.4844 8.65104 37.8646 6.50521 36.625 4.95312C35.3854 3.40104 33.6875 2.625 31.5312 2.625C29.4167 2.625 27.7292 3.40625 26.4688 4.96875C25.2188 6.52083 24.5938 8.69271 24.5938 11.4844V13.8594C24.5938 16.5573 25.2188 18.6979 26.4688 20.2812C27.7188 21.8542 29.4167 22.6406 31.5625 22.6406C33.7396 22.6406 35.4375 21.8646 36.6562 20.3125C37.875 18.75 38.4844 16.5781 38.4844 13.7969V11.3906ZM49.4531 17.8594L50.1562 21.3906L51.0156 18.0156L55.9531 1.25H57.6875L62.5625 18.0156L63.4062 21.4219L64.1562 17.8594L68.2656 1.25H70.2344L64.4062 24H62.5625L57.4062 6.20312L56.8281 3.95312L56.2656 6.20312L50.9844 24H49.1406L43.3281 1.25H45.2969L49.4531 17.8594Z" fill="#00C26F"/>
<path d="M86.2188 17.625H75.8906L73.5469 24H71.5312L80.1406 1.25H81.9688L90.5781 24H88.5781L86.2188 17.625ZM76.4844 15.9844H85.6094L81.0469 3.59375L76.4844 15.9844ZM99.75 22.7344C101.052 22.7344 102.141 22.3698 103.016 21.6406C103.901 20.901 104.38 19.9479 104.453 18.7812H106.25C106.198 19.8125 105.875 20.7552 105.281 21.6094C104.688 22.4531 103.896 23.1146 102.906 23.5938C101.927 24.0729 100.875 24.3125 99.75 24.3125C97.5312 24.3125 95.7708 23.5417 94.4688 22C93.1771 20.4583 92.5312 18.3854 92.5312 15.7812V15.2188C92.5312 13.5521 92.8229 12.0781 93.4062 10.7969C93.9896 9.51562 94.8229 8.52604 95.9062 7.82812C97 7.13021 98.276 6.78125 99.7344 6.78125C101.589 6.78125 103.115 7.33333 104.312 8.4375C105.521 9.54167 106.167 10.9948 106.25 12.7969H104.453C104.37 11.474 103.891 10.4062 103.016 9.59375C102.151 8.78125 101.057 8.375 99.7344 8.375C98.0469 8.375 96.7344 8.98438 95.7969 10.2031C94.8698 11.4219 94.4062 13.1302 94.4062 15.3281V15.875C94.4062 18.0312 94.8698 19.7135 95.7969 20.9219C96.7344 22.1302 98.0521 22.7344 99.75 22.7344ZM120.672 24C120.484 23.4688 120.365 22.6823 120.312 21.6406C119.656 22.4948 118.818 23.1562 117.797 23.625C116.786 24.0833 115.714 24.3125 114.578 24.3125C112.953 24.3125 111.635 23.8594 110.625 22.9531C109.625 22.0469 109.125 20.901 109.125 19.5156C109.125 17.8698 109.807 16.5677 111.172 15.6094C112.547 14.651 114.458 14.1719 116.906 14.1719H120.297V12.25C120.297 11.0417 119.922 10.0938 119.172 9.40625C118.432 8.70833 117.349 8.35938 115.922 8.35938C114.62 8.35938 113.542 8.69271 112.688 9.35938C111.833 10.026 111.406 10.8281 111.406 11.7656L109.531 11.75C109.531 10.4062 110.156 9.24479 111.406 8.26562C112.656 7.27604 114.193 6.78125 116.016 6.78125C117.901 6.78125 119.385 7.25521 120.469 8.20312C121.562 9.14062 122.125 10.4531 122.156 12.1406V20.1406C122.156 21.776 122.328 23 122.672 23.8125V24H120.672ZM114.797 22.6562C116.047 22.6562 117.161 22.3542 118.141 21.75C119.13 21.1458 119.849 20.3385 120.297 19.3281V15.6094H116.953C115.089 15.6302 113.63 15.974 112.578 16.6406C111.526 17.2969 111 18.2031 111 19.3594C111 20.3073 111.349 21.0938 112.047 21.7188C112.755 22.3438 113.672 22.6562 114.797 22.6562ZM126.406 15.3906C126.406 12.7656 126.99 10.6771 128.156 9.125C129.333 7.5625 130.927 6.78125 132.938 6.78125C135.219 6.78125 136.958 7.68229 138.156 9.48438V0H140.016V24H138.266L138.188 21.75C136.99 23.4583 135.229 24.3125 132.906 24.3125C130.958 24.3125 129.385 23.5312 128.188 21.9688C127 20.3958 126.406 18.276 126.406 15.6094V15.3906ZM128.297 15.7188C128.297 17.875 128.729 19.5781 129.594 20.8281C130.458 22.0677 131.677 22.6875 133.25 22.6875C135.552 22.6875 137.188 21.6719 138.156 19.6406V11.7031C137.188 9.50521 135.562 8.40625 133.281 8.40625C131.708 8.40625 130.484 9.02604 129.609 10.2656C128.734 11.4948 128.297 13.3125 128.297 15.7188ZM151.484 24.3125C150.047 24.3125 148.745 23.9583 147.578 23.25C146.422 22.5417 145.521 21.5573 144.875 20.2969C144.229 19.026 143.906 17.6042 143.906 16.0312V15.3594C143.906 13.7344 144.219 12.2708 144.844 10.9688C145.479 9.66667 146.359 8.64583 147.484 7.90625C148.609 7.15625 149.828 6.78125 151.141 6.78125C153.193 6.78125 154.818 7.48438 156.016 8.89062C157.224 10.2865 157.828 12.1979 157.828 14.625V15.6719H145.766V16.0312C145.766 17.9479 146.312 19.5469 147.406 20.8281C148.51 22.099 149.896 22.7344 151.562 22.7344C152.562 22.7344 153.443 22.5521 154.203 22.1875C154.974 21.8229 155.672 21.2396 156.297 20.4375L157.469 21.3281C156.094 23.3177 154.099 24.3125 151.484 24.3125ZM151.141 8.375C149.734 8.375 148.547 8.89062 147.578 9.92188C146.62 10.9531 146.036 12.3385 145.828 14.0781H155.969V13.875C155.917 12.25 155.453 10.9271 154.578 9.90625C153.703 8.88542 152.557 8.375 151.141 8.375ZM163.172 7.09375L163.234 9.84375C163.859 8.82292 164.641 8.05729 165.578 7.54688C166.516 7.03646 167.557 6.78125 168.703 6.78125C171.37 6.78125 173.062 7.875 173.781 10.0625C174.385 9.01042 175.193 8.20312 176.203 7.64062C177.214 7.06771 178.328 6.78125 179.547 6.78125C183.172 6.78125 185.021 8.76042 185.094 12.7188V24H183.219V12.8594C183.208 11.349 182.88 10.2292 182.234 9.5C181.599 8.77083 180.557 8.40625 179.109 8.40625C177.766 8.42708 176.63 8.86458 175.703 9.71875C174.776 10.5625 174.26 11.5938 174.156 12.8125V24H172.281V12.7188C172.271 11.2708 171.927 10.1927 171.25 9.48438C170.583 8.76562 169.552 8.40625 168.156 8.40625C166.979 8.40625 165.969 8.74479 165.125 9.42188C164.281 10.0885 163.656 11.0833 163.25 12.4062V24H161.375V7.09375H163.172ZM195.203 21.3125L200.141 7.09375H202.156L194.938 26.875L194.562 27.75C193.635 29.8021 192.203 30.8281 190.266 30.8281C189.818 30.8281 189.339 30.7552 188.828 30.6094L188.812 29.0625L189.781 29.1562C190.698 29.1562 191.438 28.9271 192 28.4688C192.573 28.0208 193.057 27.2448 193.453 26.1406L194.281 23.8594L187.906 7.09375H189.953L195.203 21.3125Z" fill="white"/>
</svg>
