<svg width="104" height="12" viewBox="0 0 104 12" fill="none" xmlns="http://www.w3.org/2000/svg">
<path d="M8.47656 7.8418C8.35352 8.89453 7.96387 9.70801 7.30762 10.2822C6.65592 10.8519 5.78776 11.1367 4.70312 11.1367C3.52734 11.1367 2.58398 10.7152 1.87305 9.87207C1.16667 9.02897 0.813477 7.90104 0.813477 6.48828V5.53125C0.813477 4.60612 0.977539 3.79264 1.30566 3.09082C1.63835 2.389 2.10775 1.85124 2.71387 1.47754C3.31999 1.09928 4.02181 0.910156 4.81934 0.910156C5.87663 0.910156 6.72428 1.20638 7.3623 1.79883C8.00033 2.38672 8.37174 3.20247 8.47656 4.24609H7.15723C7.04329 3.45312 6.79492 2.87891 6.41211 2.52344C6.03385 2.16797 5.50293 1.99023 4.81934 1.99023C3.98079 1.99023 3.32227 2.30013 2.84375 2.91992C2.36979 3.53971 2.13281 4.42155 2.13281 5.56543V6.5293C2.13281 7.60938 2.3584 8.46842 2.80957 9.10645C3.26074 9.74447 3.89193 10.0635 4.70312 10.0635C5.43229 10.0635 5.99056 9.89941 6.37793 9.57129C6.76986 9.23861 7.02962 8.66211 7.15723 7.8418H8.47656ZM19.9238 11H18.6045V6.39941H13.5869V11H12.2744V1.04688H13.5869V5.32617H18.6045V1.04688H19.9238V11ZM29.874 8.40234H25.7041L24.7676 11H23.4141L27.2148 1.04688H28.3633L32.1709 11H30.8242L29.874 8.40234ZM26.1006 7.32227H29.4844L27.7891 2.66699L26.1006 7.32227ZM43.1602 11H41.8408L36.8301 3.33008V11H35.5107V1.04688H36.8301L41.8545 8.75098V1.04688H43.1602V11ZM54.8398 9.69434C54.5026 10.1774 54.0309 10.5397 53.4248 10.7812C52.8232 11.0182 52.1214 11.1367 51.3193 11.1367C50.5081 11.1367 49.7881 10.9476 49.1592 10.5693C48.5303 10.1865 48.0426 9.64421 47.6963 8.94238C47.3545 8.24056 47.179 7.42708 47.1699 6.50195V5.63379C47.1699 4.13444 47.5186 2.97233 48.2158 2.14746C48.9176 1.32259 49.902 0.910156 51.1689 0.910156C52.208 0.910156 53.0443 1.17676 53.6777 1.70996C54.3112 2.23861 54.6986 2.99056 54.8398 3.96582H53.5273C53.2812 2.64876 52.4974 1.99023 51.1758 1.99023C50.2962 1.99023 49.6286 2.30013 49.1729 2.91992C48.7217 3.53516 48.4938 4.42839 48.4893 5.59961V6.41309C48.4893 7.52962 48.7445 8.41829 49.2549 9.0791C49.7653 9.73535 50.4557 10.0635 51.3262 10.0635C51.8184 10.0635 52.249 10.0088 52.6182 9.89941C52.9873 9.79004 53.2926 9.60547 53.5342 9.3457V7.11035H51.2305V6.04395H54.8398V9.69434ZM64.6602 6.39941H60.3467V9.92676H65.3574V11H59.0342V1.04688H65.2891V2.12695H60.3467V5.32617H64.6602V6.39941Z" fill="white"/>
<path d="M76.6406 11H75.3213L70.3105 3.33008V11H68.9912V1.04688H70.3105L75.335 8.75098V1.04688H76.6406V11ZM88.6279 6.34473C88.6279 7.31999 88.4639 8.1722 88.1357 8.90137C87.8076 9.62598 87.3428 10.1797 86.7412 10.5625C86.1396 10.9453 85.4378 11.1367 84.6357 11.1367C83.8519 11.1367 83.1569 10.9453 82.5508 10.5625C81.9447 10.1751 81.473 9.62598 81.1357 8.91504C80.8031 8.19954 80.6322 7.3724 80.623 6.43359V5.71582C80.623 4.75879 80.7894 3.91341 81.1221 3.17969C81.4548 2.44596 81.9242 1.88542 82.5303 1.49805C83.141 1.10612 83.8382 0.910156 84.6221 0.910156C85.4196 0.910156 86.1214 1.10384 86.7275 1.49121C87.3382 1.87402 87.8076 2.43229 88.1357 3.16602C88.4639 3.89518 88.6279 4.74512 88.6279 5.71582V6.34473ZM87.3223 5.70215C87.3223 4.52181 87.0853 3.61719 86.6113 2.98828C86.1374 2.35482 85.4743 2.03809 84.6221 2.03809C83.7926 2.03809 83.1387 2.35482 82.6602 2.98828C82.1862 3.61719 81.9424 4.49219 81.9287 5.61328V6.34473C81.9287 7.48861 82.168 8.38867 82.6465 9.04492C83.1296 9.69661 83.7926 10.0225 84.6357 10.0225C85.4834 10.0225 86.1396 9.71484 86.6045 9.09961C87.0693 8.47982 87.3086 7.59342 87.3223 6.44043V5.70215ZM94.7432 7.8623L94.9346 9.1748L95.2148 7.99219L97.1836 1.04688H98.291L100.212 7.99219L100.485 9.19531L100.697 7.85547L102.242 1.04688H103.562L101.148 11H99.9521L97.9014 3.74707L97.7441 2.98828L97.5869 3.74707L95.4609 11H94.2646L91.8584 1.04688H93.1709L94.7432 7.8623Z" fill="#00C26F"/>
</svg>
