<svg width="109" height="14" viewBox="0 0 109 14" fill="none" xmlns="http://www.w3.org/2000/svg">
<path d="M9.93359 11.3213C9.5 11.9424 8.89355 12.4082 8.11426 12.7188C7.34082 13.0234 6.43848 13.1758 5.40723 13.1758C4.36426 13.1758 3.43848 12.9326 2.62988 12.4463C1.82129 11.9541 1.19434 11.2568 0.749023 10.3545C0.30957 9.45215 0.0839844 8.40625 0.0722656 7.2168V6.10059C0.0722656 4.17285 0.520508 2.67871 1.41699 1.61816C2.31934 0.557617 3.58496 0.0273438 5.21387 0.0273438C6.5498 0.0273438 7.625 0.370117 8.43945 1.05566C9.25391 1.73535 9.75195 2.70215 9.93359 3.95605H8.24609C7.92969 2.2627 6.92188 1.41602 5.22266 1.41602C4.0918 1.41602 3.2334 1.81445 2.64746 2.61133C2.06738 3.40234 1.77441 4.55078 1.76855 6.05664V7.10254C1.76855 8.53809 2.09668 9.68066 2.75293 10.5303C3.40918 11.374 4.29688 11.7959 5.41602 11.7959C6.04883 11.7959 6.60254 11.7256 7.07715 11.585C7.55176 11.4443 7.94434 11.207 8.25488 10.873V7.99902H5.29297V6.62793H9.93359V11.3213ZM17.4512 11.6201H23.5156V13H15.7549V0.203125H17.4512V11.6201ZM37.7041 7.01465C37.7041 8.26855 37.4932 9.36426 37.0713 10.3018C36.6494 11.2334 36.0518 11.9453 35.2783 12.4375C34.5049 12.9297 33.6025 13.1758 32.5713 13.1758C31.5635 13.1758 30.6699 12.9297 29.8906 12.4375C29.1113 11.9395 28.5049 11.2334 28.0713 10.3193C27.6436 9.39941 27.4238 8.33594 27.4121 7.12891V6.20605C27.4121 4.97559 27.626 3.88867 28.0537 2.94531C28.4814 2.00195 29.085 1.28125 29.8643 0.783203C30.6494 0.279297 31.5459 0.0273438 32.5537 0.0273438C33.5791 0.0273438 34.4814 0.276367 35.2607 0.774414C36.0459 1.2666 36.6494 1.98438 37.0713 2.92773C37.4932 3.86523 37.7041 4.95801 37.7041 6.20605V7.01465ZM36.0254 6.18848C36.0254 4.6709 35.7207 3.50781 35.1113 2.69922C34.502 1.88477 33.6494 1.47754 32.5537 1.47754C31.4873 1.47754 30.6465 1.88477 30.0312 2.69922C29.4219 3.50781 29.1084 4.63281 29.0908 6.07422V7.01465C29.0908 8.48535 29.3984 9.64258 30.0137 10.4863C30.6348 11.3242 31.4873 11.7432 32.5713 11.7432C33.6611 11.7432 34.5049 11.3477 35.1025 10.5566C35.7002 9.75977 36.0078 8.62012 36.0254 7.1377V6.18848ZM47.0059 7.2959C45.5586 6.87988 44.5039 6.37012 43.8418 5.7666C43.1855 5.15723 42.8574 4.40723 42.8574 3.5166C42.8574 2.50879 43.2588 1.67676 44.0615 1.02051C44.8701 0.358398 45.9189 0.0273438 47.208 0.0273438C48.0869 0.0273438 48.8691 0.197266 49.5547 0.537109C50.2461 0.876953 50.7793 1.3457 51.1543 1.94336C51.5352 2.54102 51.7256 3.19434 51.7256 3.90332H50.0293C50.0293 3.12988 49.7832 2.52344 49.291 2.08398C48.7988 1.63867 48.1045 1.41602 47.208 1.41602C46.376 1.41602 45.7256 1.60059 45.2568 1.96973C44.7939 2.33301 44.5625 2.83984 44.5625 3.49023C44.5625 4.01172 44.7822 4.4541 45.2217 4.81738C45.667 5.1748 46.4199 5.50293 47.4805 5.80176C48.5469 6.10059 49.3789 6.43164 49.9766 6.79492C50.5801 7.15234 51.0254 7.57129 51.3125 8.05176C51.6055 8.53223 51.752 9.09766 51.752 9.74805C51.752 10.7852 51.3477 11.6172 50.5391 12.2441C49.7305 12.8652 48.6494 13.1758 47.2959 13.1758C46.417 13.1758 45.5967 13.0088 44.835 12.6748C44.0732 12.335 43.4844 11.8721 43.0684 11.2861C42.6582 10.7002 42.4531 10.0352 42.4531 9.29102H44.1494C44.1494 10.0645 44.4336 10.6768 45.002 11.1279C45.5762 11.5732 46.3408 11.7959 47.2959 11.7959C48.1865 11.7959 48.8691 11.6143 49.3438 11.251C49.8184 10.8877 50.0557 10.3926 50.0557 9.76562C50.0557 9.13867 49.8359 8.65527 49.3965 8.31543C48.957 7.96973 48.1602 7.62988 47.0059 7.2959ZM60.6934 7.2959C59.2461 6.87988 58.1914 6.37012 57.5293 5.7666C56.873 5.15723 56.5449 4.40723 56.5449 3.5166C56.5449 2.50879 56.9463 1.67676 57.749 1.02051C58.5576 0.358398 59.6064 0.0273438 60.8955 0.0273438C61.7744 0.0273438 62.5566 0.197266 63.2422 0.537109C63.9336 0.876953 64.4668 1.3457 64.8418 1.94336C65.2227 2.54102 65.4131 3.19434 65.4131 3.90332H63.7168C63.7168 3.12988 63.4707 2.52344 62.9785 2.08398C62.4863 1.63867 61.792 1.41602 60.8955 1.41602C60.0635 1.41602 59.4131 1.60059 58.9443 1.96973C58.4814 2.33301 58.25 2.83984 58.25 3.49023C58.25 4.01172 58.4697 4.4541 58.9092 4.81738C59.3545 5.1748 60.1074 5.50293 61.168 5.80176C62.2344 6.10059 63.0664 6.43164 63.6641 6.79492C64.2676 7.15234 64.7129 7.57129 65 8.05176C65.293 8.53223 65.4395 9.09766 65.4395 9.74805C65.4395 10.7852 65.0352 11.6172 64.2266 12.2441C63.418 12.8652 62.3369 13.1758 60.9834 13.1758C60.1045 13.1758 59.2842 13.0088 58.5225 12.6748C57.7607 12.335 57.1719 11.8721 56.7559 11.2861C56.3457 10.7002 56.1406 10.0352 56.1406 9.29102H57.8369C57.8369 10.0645 58.1211 10.6768 58.6895 11.1279C59.2637 11.5732 60.0283 11.7959 60.9834 11.7959C61.874 11.7959 62.5566 11.6143 63.0312 11.251C63.5059 10.8877 63.7432 10.3926 63.7432 9.76562C63.7432 9.13867 63.5234 8.65527 63.084 8.31543C62.6445 7.96973 61.8477 7.62988 60.6934 7.2959ZM77.6768 9.66016H72.3154L71.1113 13H69.3711L74.2578 0.203125H75.7344L80.6299 13H78.8984L77.6768 9.66016ZM72.8252 8.27148H77.1758L74.9961 2.28613L72.8252 8.27148ZM90.0459 7.82324H87.04V13H85.3438V0.203125H89.5801C91.0215 0.203125 92.1289 0.53125 92.9023 1.1875C93.6816 1.84375 94.0713 2.79883 94.0713 4.05273C94.0713 4.84961 93.8545 5.54395 93.4209 6.13574C92.9932 6.72754 92.3955 7.16992 91.6279 7.46289L94.6338 12.8945V13H92.8232L90.0459 7.82324ZM87.04 6.44336H89.6328C90.4707 6.44336 91.1357 6.22656 91.6279 5.79297C92.126 5.35938 92.375 4.7793 92.375 4.05273C92.375 3.26172 92.1377 2.65527 91.6631 2.2334C91.1943 1.81152 90.5146 1.59766 89.624 1.5918H87.04V6.44336ZM102.925 6.62793L106.265 0.203125H108.181L103.769 8.22754V13H102.081V8.22754L97.6689 0.203125H99.6025L102.925 6.62793Z" fill="white"/>
</svg>
