<svg width="144" height="23" viewBox="0 0 144 23" fill="none" xmlns="http://www.w3.org/2000/svg">
    <path d="M14.2695 18H11.3047L3.69922 5.89453V18H0.734375V0.9375H3.69922L11.3281 13.0898V0.9375H14.2695V18ZM31.3906 9.91406C31.3906 11.5859 31.1016 13.0547 30.5234 14.3203C29.9453 15.5781 29.1172 16.5469 28.0391 17.2266C26.9688 17.8984 25.7344 18.2344 24.3359 18.2344C22.9531 18.2344 21.7188 17.8984 20.6328 17.2266C19.5547 16.5469 18.7188 15.582 18.125 14.332C17.5391 13.082 17.2422 11.6406 17.2344 10.0078V9.04688C17.2344 7.38281 17.5273 5.91406 18.1133 4.64062C18.707 3.36719 19.5391 2.39453 20.6094 1.72266C21.6875 1.04297 22.9219 0.703125 24.3125 0.703125C25.7031 0.703125 26.9336 1.03906 28.0039 1.71094C29.082 2.375 29.9141 3.33594 30.5 4.59375C31.0859 5.84375 31.3828 7.30078 31.3906 8.96484V9.91406ZM28.4258 9.02344C28.4258 7.13281 28.0664 5.68359 27.3477 4.67578C26.6367 3.66797 25.625 3.16406 24.3125 3.16406C23.0312 3.16406 22.0273 3.66797 21.3008 4.67578C20.582 5.67578 20.2148 7.09375 20.1992 8.92969V9.91406C20.1992 11.7891 20.5625 13.2383 21.2891 14.2617C22.0234 15.2852 23.0391 15.7969 24.3359 15.7969C25.6484 15.7969 26.6562 15.2969 27.3594 14.2969C28.0703 13.2969 28.4258 11.8359 28.4258 9.91406V9.02344ZM47.7266 13.7812L50.3516 0.9375H53.293L49.3555 18H46.5195L43.2734 5.54297L39.957 18H37.1094L33.1719 0.9375H36.1133L38.7617 13.7578L42.0195 0.9375H44.5039L47.7266 13.7812Z" fill="#00C26F"/>
    <path d="M64.1465 13.6172H57.0459L55.4346 18H54.0488L59.9678 2.35938H61.2246L67.1436 18H65.7686L64.1465 13.6172ZM57.4541 12.4893H63.7275L60.5908 3.9707L57.4541 12.4893ZM73.4492 17.1299C74.3444 17.1299 75.0928 16.8792 75.6943 16.3779C76.3031 15.8695 76.6325 15.2142 76.6826 14.4121H77.918C77.8822 15.1211 77.6602 15.7692 77.252 16.3564C76.8438 16.9365 76.2995 17.3913 75.6191 17.7207C74.946 18.0501 74.2227 18.2148 73.4492 18.2148C71.9238 18.2148 70.7135 17.6849 69.8184 16.625C68.9303 15.5651 68.4863 14.14 68.4863 12.3496V11.9629C68.4863 10.8171 68.6868 9.80371 69.0879 8.92285C69.4889 8.04199 70.0618 7.36165 70.8066 6.88184C71.5586 6.40202 72.4359 6.16211 73.4385 6.16211C74.7132 6.16211 75.7624 6.54167 76.5859 7.30078C77.4167 8.0599 77.8607 9.05892 77.918 10.2979H76.6826C76.6253 9.38835 76.2959 8.6543 75.6943 8.0957C75.0999 7.53711 74.348 7.25781 73.4385 7.25781C72.2783 7.25781 71.376 7.67676 70.7314 8.51465C70.0941 9.35254 69.7754 10.527 69.7754 12.0381V12.4141C69.7754 13.8965 70.0941 15.0531 70.7314 15.8838C71.376 16.7145 72.2819 17.1299 73.4492 17.1299ZM87.833 18C87.7041 17.6348 87.6217 17.0941 87.5859 16.3779C87.1348 16.9652 86.5583 17.4199 85.8564 17.7422C85.1618 18.0573 84.4242 18.2148 83.6436 18.2148C82.5264 18.2148 81.6204 17.9033 80.9258 17.2803C80.2383 16.6572 79.8945 15.8695 79.8945 14.917C79.8945 13.7855 80.3636 12.8903 81.3018 12.2314C82.2471 11.5726 83.5612 11.2432 85.2441 11.2432H87.5752V9.92188C87.5752 9.09115 87.3174 8.43945 86.8018 7.9668C86.2933 7.48698 85.5485 7.24707 84.5674 7.24707C83.6722 7.24707 82.931 7.47624 82.3438 7.93457C81.7565 8.3929 81.4629 8.94434 81.4629 9.58887L80.1738 9.57812C80.1738 8.6543 80.6035 7.85579 81.4629 7.18262C82.3223 6.50228 83.3786 6.16211 84.6318 6.16211C85.9281 6.16211 86.9486 6.48796 87.6934 7.13965C88.4453 7.78418 88.832 8.68652 88.8535 9.84668V15.3467C88.8535 16.471 88.9717 17.3125 89.208 17.8711V18H87.833ZM83.7939 17.0762C84.6533 17.0762 85.4196 16.8685 86.0928 16.4531C86.7731 16.0378 87.2673 15.4827 87.5752 14.7881V12.2314H85.2764C83.9945 12.2458 82.9919 12.4821 82.2686 12.9404C81.5452 13.3916 81.1836 14.0146 81.1836 14.8096C81.1836 15.4613 81.4235 16.002 81.9033 16.4316C82.3903 16.8613 83.0205 17.0762 83.7939 17.0762ZM91.7754 12.0811C91.7754 10.2764 92.1764 8.84049 92.9785 7.77344C93.7878 6.69922 94.8835 6.16211 96.2656 6.16211C97.834 6.16211 99.0299 6.78158 99.8535 8.02051V1.5H101.132V18H99.9287L99.875 16.4531C99.0514 17.6276 97.8411 18.2148 96.2441 18.2148C94.9049 18.2148 93.8236 17.6777 93 16.6035C92.1836 15.5221 91.7754 14.0648 91.7754 12.2314V12.0811ZM93.0752 12.3066C93.0752 13.7891 93.3724 14.96 93.9668 15.8193C94.5612 16.6715 95.3991 17.0977 96.4805 17.0977C98.0632 17.0977 99.1875 16.3994 99.8535 15.0029V9.5459C99.1875 8.03483 98.0703 7.2793 96.502 7.2793C95.4206 7.2793 94.5791 7.7054 93.9775 8.55762C93.376 9.40267 93.0752 10.6523 93.0752 12.3066ZM109.017 18.2148C108.028 18.2148 107.133 17.9714 106.331 17.4844C105.536 16.9974 104.917 16.3206 104.473 15.4541C104.029 14.5804 103.807 13.6029 103.807 12.5215V12.0596C103.807 10.9424 104.021 9.9362 104.451 9.04102C104.888 8.14583 105.493 7.44401 106.267 6.93555C107.04 6.41992 107.878 6.16211 108.78 6.16211C110.191 6.16211 111.308 6.64551 112.132 7.6123C112.963 8.57194 113.378 9.88607 113.378 11.5547V12.2744H105.085V12.5215C105.085 13.8392 105.461 14.9385 106.213 15.8193C106.972 16.693 107.924 17.1299 109.07 17.1299C109.758 17.1299 110.363 17.0046 110.886 16.7539C111.416 16.5033 111.896 16.1022 112.325 15.5508L113.131 16.1631C112.186 17.5309 110.814 18.2148 109.017 18.2148ZM108.78 7.25781C107.813 7.25781 106.997 7.6123 106.331 8.32129C105.672 9.03027 105.271 9.98275 105.128 11.1787H112.1V11.0391C112.064 9.92188 111.745 9.01237 111.144 8.31055C110.542 7.60872 109.754 7.25781 108.78 7.25781ZM117.052 6.37695L117.095 8.26758C117.524 7.56576 118.062 7.03939 118.706 6.68848C119.351 6.33757 120.067 6.16211 120.854 6.16211C122.688 6.16211 123.852 6.91406 124.346 8.41797C124.761 7.69466 125.316 7.13965 126.011 6.75293C126.705 6.35905 127.472 6.16211 128.31 6.16211C130.802 6.16211 132.073 7.52279 132.123 10.2441V18H130.834V10.3408C130.827 9.30241 130.601 8.53255 130.157 8.03125C129.72 7.52995 129.004 7.2793 128.009 7.2793C127.085 7.29362 126.304 7.5944 125.667 8.18164C125.03 8.76172 124.675 9.4707 124.604 10.3086V18H123.314V10.2441C123.307 9.2487 123.071 8.50749 122.605 8.02051C122.147 7.52637 121.438 7.2793 120.479 7.2793C119.669 7.2793 118.975 7.51204 118.395 7.97754C117.814 8.43587 117.385 9.11979 117.105 10.0293V18H115.816V6.37695H117.052ZM139.073 16.1523L142.468 6.37695H143.854L138.891 19.9766L138.633 20.5781C137.995 21.9889 137.011 22.6943 135.679 22.6943C135.371 22.6943 135.041 22.6442 134.69 22.5439L134.68 21.4805L135.346 21.5449C135.976 21.5449 136.484 21.3874 136.871 21.0723C137.265 20.7643 137.598 20.2308 137.87 19.4717L138.439 17.9033L134.057 6.37695H135.464L139.073 16.1523Z" fill="white"/>
</svg>
