<svg width="178" height="31" viewBox="0 0 178 31" fill="none" xmlns="http://www.w3.org/2000/svg">
<path d="M16.9844 16.9062C16.724 19.3021 15.8646 21.1354 14.4062 22.4062C12.9583 23.6771 11.026 24.3125 8.60938 24.3125C6.92188 24.3125 5.42708 23.8906 4.125 23.0469C2.83333 22.2031 1.83333 21.0104 1.125 19.4688C0.416667 17.9167 0.0572917 16.1458 0.046875 14.1562V11.2031C0.046875 9.18229 0.401042 7.39062 1.10938 5.82812C1.81771 4.26562 2.83333 3.0625 4.15625 2.21875C5.48958 1.36458 7.02083 0.9375 8.75 0.9375C11.1875 0.9375 13.1094 1.59896 14.5156 2.92188C15.9323 4.23438 16.7552 6.05208 16.9844 8.375H15.0469C14.5677 4.51042 12.4688 2.57812 8.75 2.57812C6.6875 2.57812 5.04167 3.34896 3.8125 4.89062C2.59375 6.43229 1.98438 8.5625 1.98438 11.2812V14.0625C1.98438 16.6875 2.57812 18.7812 3.76562 20.3438C4.96354 21.9062 6.57812 22.6875 8.60938 22.6875C10.6198 22.6875 12.1354 22.2083 13.1562 21.25C14.1771 20.2812 14.8073 18.8333 15.0469 16.9062H16.9844ZM23.0781 9.95312C23.6927 8.94271 24.4792 8.16146 25.4375 7.60938C26.3958 7.05729 27.4427 6.78125 28.5781 6.78125C30.3906 6.78125 31.7396 7.29167 32.625 8.3125C33.5104 9.33333 33.9583 10.8646 33.9688 12.9062V24H32.1094V12.8906C32.099 11.3802 31.776 10.2552 31.1406 9.51562C30.5156 8.77604 29.5104 8.40625 28.125 8.40625C26.9688 8.40625 25.9427 8.77083 25.0469 9.5C24.1615 10.2188 23.5052 11.1927 23.0781 12.4219V24H21.2188V0H23.0781V9.95312ZM49.4531 24C49.2656 23.4688 49.1458 22.6823 49.0938 21.6406C48.4375 22.4948 47.599 23.1562 46.5781 23.625C45.5677 24.0833 44.4948 24.3125 43.3594 24.3125C41.7344 24.3125 40.4167 23.8594 39.4062 22.9531C38.4062 22.0469 37.9062 20.901 37.9062 19.5156C37.9062 17.8698 38.5885 16.5677 39.9531 15.6094C41.3281 14.651 43.2396 14.1719 45.6875 14.1719H49.0781V12.25C49.0781 11.0417 48.7031 10.0938 47.9531 9.40625C47.2135 8.70833 46.1302 8.35938 44.7031 8.35938C43.401 8.35938 42.3229 8.69271 41.4688 9.35938C40.6146 10.026 40.1875 10.8281 40.1875 11.7656L38.3125 11.75C38.3125 10.4062 38.9375 9.24479 40.1875 8.26562C41.4375 7.27604 42.974 6.78125 44.7969 6.78125C46.6823 6.78125 48.1667 7.25521 49.25 8.20312C50.3438 9.14062 50.9062 10.4531 50.9375 12.1406V20.1406C50.9375 21.776 51.1094 23 51.4531 23.8125V24H49.4531ZM43.5781 22.6562C44.8281 22.6562 45.9427 22.3542 46.9219 21.75C47.9115 21.1458 48.6302 20.3385 49.0781 19.3281V15.6094H45.7344C43.8698 15.6302 42.4115 15.974 41.3594 16.6406C40.3073 17.2969 39.7812 18.2031 39.7812 19.3594C39.7812 20.3073 40.1302 21.0938 40.8281 21.7188C41.5365 22.3438 42.4531 22.6562 43.5781 22.6562ZM57.7188 7.09375L57.7812 9.98438C58.4167 8.94271 59.2083 8.15104 60.1562 7.60938C61.1042 7.05729 62.151 6.78125 63.2969 6.78125C65.1094 6.78125 66.4583 7.29167 67.3438 8.3125C68.2292 9.33333 68.6771 10.8646 68.6875 12.9062V24H66.8281V12.8906C66.8177 11.3802 66.4948 10.2552 65.8594 9.51562C65.2344 8.77604 64.2292 8.40625 62.8438 8.40625C61.6875 8.40625 60.6615 8.77083 59.7656 9.5C58.8802 10.2188 58.224 11.1927 57.7969 12.4219V24H55.9375V7.09375H57.7188ZM72.7812 15.3906C72.7812 12.7448 73.3646 10.651 74.5312 9.10938C75.7083 7.55729 77.3021 6.78125 79.3125 6.78125C81.6146 6.78125 83.3646 7.69792 84.5625 9.53125L84.6562 7.09375H86.4062V23.6562C86.4062 25.8333 85.7969 27.5573 84.5781 28.8281C83.3594 30.099 81.7083 30.7344 79.625 30.7344C78.4479 30.7344 77.3229 30.4688 76.25 29.9375C75.1875 29.4167 74.349 28.7188 73.7344 27.8438L74.7812 26.7188C76.1042 28.3438 77.6771 29.1562 79.5 29.1562C81.0625 29.1562 82.2812 28.6927 83.1562 27.7656C84.0312 26.849 84.4844 25.5729 84.5156 23.9375V21.8125C83.3177 23.4792 81.5729 24.3125 79.2812 24.3125C77.3229 24.3125 75.75 23.5312 74.5625 21.9688C73.375 20.4062 72.7812 18.2969 72.7812 15.6406V15.3906ZM74.6719 15.7188C74.6719 17.875 75.1042 19.5781 75.9688 20.8281C76.8333 22.0677 78.0521 22.6875 79.625 22.6875C81.9271 22.6875 83.5573 21.6562 84.5156 19.5938V11.7344C84.0781 10.651 83.4479 9.82812 82.625 9.26562C81.8021 8.69271 80.8125 8.40625 79.6562 8.40625C78.0833 8.40625 76.8594 9.02604 75.9844 10.2656C75.1094 11.4948 74.6719 13.3125 74.6719 15.7188ZM97.8281 24.3125C96.3906 24.3125 95.0885 23.9583 93.9219 23.25C92.7656 22.5417 91.8646 21.5573 91.2188 20.2969C90.5729 19.026 90.25 17.6042 90.25 16.0312V15.3594C90.25 13.7344 90.5625 12.2708 91.1875 10.9688C91.8229 9.66667 92.7031 8.64583 93.8281 7.90625C94.9531 7.15625 96.1719 6.78125 97.4844 6.78125C99.5365 6.78125 101.161 7.48438 102.359 8.89062C103.568 10.2865 104.172 12.1979 104.172 14.625V15.6719H92.1094V16.0312C92.1094 17.9479 92.6562 19.5469 93.75 20.8281C94.8542 22.099 96.2396 22.7344 97.9062 22.7344C98.9062 22.7344 99.7865 22.5521 100.547 22.1875C101.318 21.8229 102.016 21.2396 102.641 20.4375L103.812 21.3281C102.438 23.3177 100.443 24.3125 97.8281 24.3125ZM97.4844 8.375C96.0781 8.375 94.8906 8.89062 93.9219 9.92188C92.9635 10.9531 92.3802 12.3385 92.1719 14.0781H102.312V13.875C102.26 12.25 101.797 10.9271 100.922 9.90625C100.047 8.88542 98.901 8.375 97.4844 8.375Z" fill="white"/>
<path d="M125.188 24H123.266L110.188 4.53125V24H108.25V1.25H110.188L123.281 20.7344V1.25H125.188V24ZM147.781 13.8594C147.781 15.9531 147.417 17.7917 146.688 19.375C145.969 20.9583 144.938 22.1771 143.594 23.0312C142.25 23.8854 140.698 24.3125 138.938 24.3125C136.281 24.3125 134.135 23.3646 132.5 21.4688C130.865 19.5625 130.047 16.9948 130.047 13.7656V11.4219C130.047 9.34896 130.411 7.51562 131.141 5.92188C131.88 4.31771 132.922 3.08854 134.266 2.23438C135.609 1.36979 137.156 0.9375 138.906 0.9375C140.656 0.9375 142.198 1.35938 143.531 2.20312C144.875 3.04688 145.911 4.23958 146.641 5.78125C147.37 7.32292 147.75 9.10938 147.781 11.1406V13.8594ZM145.859 11.3906C145.859 8.65104 145.24 6.50521 144 4.95312C142.76 3.40104 141.062 2.625 138.906 2.625C136.792 2.625 135.104 3.40625 133.844 4.96875C132.594 6.52083 131.969 8.69271 131.969 11.4844V13.8594C131.969 16.5573 132.594 18.6979 133.844 20.2812C135.094 21.8542 136.792 22.6406 138.938 22.6406C141.115 22.6406 142.812 21.8646 144.031 20.3125C145.25 18.75 145.859 16.5781 145.859 13.7969V11.3906ZM156.828 17.8594L157.531 21.3906L158.391 18.0156L163.328 1.25H165.062L169.938 18.0156L170.781 21.4219L171.531 17.8594L175.641 1.25H177.609L171.781 24H169.938L164.781 6.20312L164.203 3.95312L163.641 6.20312L158.359 24H156.516L150.703 1.25H152.672L156.828 17.8594Z" fill="#00C26F"/>
</svg>
