<svg width="15" height="25" viewBox="0 0 15 25" fill="none" xmlns="http://www.w3.org/2000/svg">
<path d="M13.7489 0.00520167L10.507 0C6.86478 0 4.51105 2.41487 4.51105 6.15253V8.98926H1.25146C0.96979 8.98926 0.741699 9.21762 0.741699 9.49929V13.6094C0.741699 13.8911 0.97005 14.1191 1.25146 14.1191H4.51105V24.4902C4.51105 24.7719 4.73914 25 5.02081 25H9.27365C9.55532 25 9.78341 24.7716 9.78341 24.4902V14.1191H13.5946C13.8763 14.1191 14.1044 13.8911 14.1044 13.6094L14.1059 9.49929C14.1059 9.36404 14.0521 9.23452 13.9567 9.13881C13.8612 9.0431 13.7312 8.98926 13.5959 8.98926H9.78341V6.58453C9.78341 5.42872 10.0588 4.84197 11.5644 4.84197L13.7483 4.84119C14.0297 4.84119 14.2578 4.61284 14.2578 4.33143V0.514965C14.2578 0.233815 14.03 0.00572184 13.7489 0.00520167Z" fill="white"/>
</svg>
