<svg width="25" height="25" viewBox="0 0 25 25" fill="none" xmlns="http://www.w3.org/2000/svg">
<path d="M21.5909 0H3.40909C1.52936 0 0 1.52936 0 3.40909V21.5909C0 23.4706 1.52936 25 3.40909 25H21.5909C23.4706 25 25 23.4706 25 21.5909V3.40909C25 1.52936 23.4706 0 21.5909 0ZM12.5 20.4545C8.11435 20.4545 4.54545 16.8857 4.54545 12.5C4.54545 8.11435 8.11435 4.54545 12.5 4.54545C16.8857 4.54545 20.4545 8.11435 20.4545 12.5C20.4545 16.8857 16.8857 20.4545 12.5 20.4545ZM20.4545 6.81818C19.2016 6.81818 18.1818 5.79841 18.1818 4.54545C18.1818 3.2925 19.2016 2.27273 20.4545 2.27273C21.7075 2.27273 22.7273 3.2925 22.7273 4.54545C22.7273 5.79841 21.7075 6.81818 20.4545 6.81818Z" fill="white"/>
</svg>
