<svg width="28" height="25" viewBox="0 0 28 25" fill="none" xmlns="http://www.w3.org/2000/svg">
<path d="M24.8791 9.69599C23.9948 9.69599 23.2166 10.0283 22.6438 10.546C20.538 9.22516 17.6983 8.37516 14.5518 8.28454L16.1863 1.61162L21.3908 2.66995C21.3908 3.82412 22.4291 4.76683 23.7031 4.76683C25.0016 4.76683 26.0458 3.79912 26.0458 2.64391C26.0458 1.4887 25.0086 0.520996 23.7043 0.520996C22.7955 0.520996 22.0115 1.01787 21.6206 1.69704L15.8725 0.542871C15.5831 0.473079 15.2996 0.660579 15.2226 0.923079L13.4283 8.27933C10.3063 8.39704 7.49696 9.246 5.38412 10.5679C4.81129 10.0283 4.00279 9.69599 3.11846 9.69599C-0.162211 9.69599 -1.23671 13.6845 1.76746 15.0481C1.66129 15.47 1.61346 15.92 1.61346 16.3689C1.61346 20.8491 7.18429 24.4793 14.0245 24.4793C20.8938 24.4793 26.4646 20.8491 26.4646 16.3689C26.4646 15.92 26.4121 15.4491 26.2826 15.0262C29.2261 13.6575 28.1423 9.69808 24.8791 9.69599ZM6.53446 15.3314C6.53446 14.1554 7.57279 13.2085 8.87712 13.2085C10.1511 13.2085 11.1906 14.1491 11.1906 15.3314C11.1906 16.4866 10.1523 17.4283 8.87712 17.4283C7.57862 17.4335 6.53446 16.4866 6.53446 15.3314ZM19.18 20.3293C17.0321 22.2752 10.9713 22.2752 8.82229 20.3293C8.58546 20.1418 8.58546 19.8106 8.82229 19.597C9.02879 19.4095 9.39512 19.4095 9.60162 19.597C11.242 21.121 16.6833 21.147 18.3948 19.597C18.6013 19.4095 18.9676 19.4095 19.1741 19.597C19.4156 19.8116 19.4156 20.1429 19.18 20.3293ZM19.1321 17.4325C17.8581 17.4325 16.8198 16.4918 16.8198 15.3377C16.8198 14.1616 17.8581 13.2147 19.1321 13.2147C20.4306 13.2147 21.4748 14.1554 21.4748 15.3377C21.469 16.4866 20.4306 17.4325 19.1321 17.4325Z" fill="white"/>
</svg>
