<svg width="28" height="25" viewBox="0 0 28 25" fill="none" xmlns="http://www.w3.org/2000/svg">
<g clip-path="url(#clip0)">
<path d="M7.43072 13.7185L0.552621 11.0314C-0.22252 10.7288 -0.170074 9.73158 0.633613 9.4955L26.7884 1.79711C27.4727 1.59589 28.1395 2.1413 27.9746 2.76786L22.7481 22.6092C22.592 23.202 21.7942 23.4437 21.2666 23.0579L15.1252 18.5713L7.43072 13.7185Z" fill="white"/>
<path d="M21.6816 6.0818L7.43066 13.7186L9.17438 20.9402C9.33078 21.5882 10.1861 21.8737 10.7802 21.4764L15.1252 18.5713L11.5502 15.959L22.1319 6.59904C22.4422 6.32458 22.0562 5.88107 21.6816 6.0818Z" fill="#AAAAAF"/>
<path d="M9.74951 21.5768C10.0699 21.7061 10.4625 21.6892 10.7804 21.4766L15.1253 18.5714L13.3378 17.2653L11.5503 15.9592L9.74951 21.5768Z" fill="#AAAAAF"/>
</g>
<defs>
<clipPath id="clip0">
<rect width="28" height="25" fill="white"/>
</clipPath>
</defs>
</svg>
