<svg width="21" height="17" viewBox="0 0 21 17" fill="none" xmlns="http://www.w3.org/2000/svg">
    <path d="M20.6374 2.10624C19.8999 2.43041 19.1124 2.65124 18.2833 2.75208C19.1283 2.24291 19.7783 1.44041 20.0858 0.48291C19.2933 0.94541 18.4149 1.28208 17.4799 1.46958C16.7333 0.67041 15.6691 0.17041 14.4874 0.17041C12.2233 0.17041 10.3874 2.00624 10.3874 4.26791C10.3874 4.59291 10.4249 4.90541 10.4933 5.20458C7.08495 5.04374 4.06411 3.40708 2.04245 0.93291C1.68661 1.53458 1.48745 2.23374 1.48745 2.99541C1.48745 4.42041 2.21245 5.67291 3.31078 6.40874C2.63828 6.38708 2.00578 6.20208 1.45411 5.89541V5.94624C1.45411 7.93374 2.86495 9.59124 4.74245 9.96874C4.39828 10.0612 4.03495 10.1112 3.66245 10.1112C3.40078 10.1112 3.14995 10.0862 2.89911 10.0396C3.42495 11.6671 4.93661 12.8537 6.73578 12.8871C5.33578 13.9862 3.56161 14.6412 1.65078 14.6412C1.32578 14.6412 1.00161 14.6221 0.675781 14.5854C2.49995 15.7471 4.64911 16.4262 6.97328 16.4262C14.5183 16.4262 18.6391 10.1796 18.6391 4.77124C18.6391 4.59708 18.6391 4.42124 18.6266 4.24624C19.4274 3.67208 20.1266 2.94624 20.6766 2.12291L20.6374 2.10624Z" fill="white"/>
</svg>
