<svg width="21" height="15" viewBox="0 0 21 15" fill="none" xmlns="http://www.w3.org/2000/svg">
    <path d="M20.255 2.46977C20.1391 2.05457 19.9181 1.67628 19.6133 1.37148C19.3085 1.06667 18.9302 0.845643 18.515 0.729768C16.9567 0.312268 10.685 0.312268 10.685 0.312268C10.685 0.312268 4.42916 0.303935 2.85499 0.729768C2.43979 0.845643 2.06151 1.06667 1.7567 1.37148C1.45189 1.67628 1.23087 2.05457 1.11499 2.46977C0.81959 4.06519 0.673957 5.68474 0.67999 7.30727C0.675097 8.92368 0.820726 10.537 1.11499 12.1264C1.23087 12.5416 1.45189 12.9199 1.7567 13.2247C2.06151 13.5295 2.43979 13.7506 2.85499 13.8664C4.41166 14.2848 10.685 14.2848 10.685 14.2848C10.685 14.2848 16.94 14.2848 18.515 13.8664C18.9302 13.7506 19.3085 13.5295 19.6133 13.2247C19.9181 12.9199 20.1391 12.5416 20.255 12.1264C20.5431 10.5365 20.6826 8.92311 20.6717 7.30727C20.6837 5.68531 20.5442 4.06577 20.255 2.46977ZM8.68332 10.2998V4.3056L13.9033 7.30727L8.68332 10.2998Z" fill="#fff"/>
</svg>
